<svg width="25" height="25" viewBox="0 0 25 25" fill="none" xmlns="http://www.w3.org/2000/svg">
<path opacity="0.2" d="M3.56543 12.3028L8.06543 14.7656V19.9069L3.95543 17.6569C3.83763 17.5924 3.73929 17.4975 3.67069 17.3821C3.60209 17.2667 3.56573 17.1349 3.56543 17.0006V12.3028ZM17.0654 14.7656V19.9069L21.1754 17.6569C21.2932 17.5924 21.3916 17.4975 21.4602 17.3821C21.5288 17.2667 21.5651 17.1349 21.5654 17.0006V12.3038L17.0654 14.7656ZM12.2054 2.85938L8.36168 4.96501L12.5654 7.26563L16.7711 4.96313L12.9254 2.85938C12.8151 2.79899 12.6913 2.76733 12.5654 2.76733C12.4396 2.76733 12.3158 2.79899 12.2054 2.85938Z" fill="#4766C1"/>
<path d="M21.5354 6.71726L13.2854 2.2032C13.0648 2.08191 12.8172 2.01831 12.5654 2.01831C12.3137 2.01831 12.066 2.08191 11.8454 2.2032L3.59543 6.72007C3.35983 6.84898 3.16315 7.03879 3.02595 7.26966C2.88874 7.50053 2.81604 7.76401 2.81543 8.03257V16.9988C2.81604 17.2674 2.88874 17.5309 3.02595 17.7617C3.16315 17.9926 3.35983 18.1824 3.59543 18.3113L11.8454 22.8273C12.0659 22.9491 12.3136 23.0129 12.5654 23.0129C12.8173 23.0129 13.065 22.9491 13.2854 22.8273L21.5354 18.3113C21.771 18.1824 21.9677 17.9926 22.1049 17.7617C22.2421 17.5309 22.3148 17.2674 22.3154 16.9988V8.03257C22.3153 7.76353 22.2429 7.49947 22.1056 7.26806C21.9684 7.03664 21.7715 6.8464 21.5354 6.71726ZM16.3154 14.7657V19.4616L13.3154 21.1041V12.9601L20.8154 8.85382V11.8538L16.7054 14.1038C16.5868 14.1687 16.4879 14.2645 16.4193 14.381C16.3506 14.4976 16.3147 14.6305 16.3154 14.7657ZM8.42543 14.1094L4.31543 11.8594V8.85945L11.8154 12.9657V21.1098L8.81543 19.4616V14.7657C8.81512 14.6314 8.77877 14.4997 8.71017 14.3842C8.64157 14.2688 8.54323 14.1739 8.42543 14.1094ZM8.3598 5.82101L12.2036 7.9257C12.3139 7.98609 12.4377 8.01775 12.5636 8.01775C12.6894 8.01775 12.8132 7.98609 12.9236 7.9257L16.7673 5.82101L19.9998 7.59007L12.5654 11.6607L5.1273 7.5882L8.3598 5.82101ZM12.5654 3.5157L15.2092 4.9632L12.5654 6.41164L9.92168 4.96414L12.5654 3.5157ZM4.31543 13.5676L7.31543 15.2101V18.6404L4.31543 16.9988V13.5676ZM17.8154 18.6404V15.2101L20.8154 13.5676V16.9988L17.8154 18.6404Z" fill="#4766C1"/>
</svg>
