<svg width="1234" height="194" viewBox="0 0 1234 194" fill="none" xmlns="http://www.w3.org/2000/svg">
<rect x="137.641" y="0.0257568" width="64.3515" height="64.3515" fill="#FF80D3"/>
<path d="M121.553 193.974C121.553 161.499 134.454 130.355 157.417 107.391C180.38 84.4281 211.525 71.5275 244 71.5275V132.751C227.763 132.751 212.19 139.201 200.709 150.683C189.227 162.164 182.777 177.737 182.777 193.974L121.553 193.974Z" fill="url(#paint0_radial_361_6)"/>
<path d="M122.447 122.941C106.367 122.941 90.4443 119.774 75.5883 113.621C60.7324 107.467 47.234 98.4477 35.8638 87.0775C24.4935 75.7072 15.4742 62.2088 9.32067 47.3529C3.16715 32.4969 -1.2907e-05 16.5744 0 0.494507L61.2233 0.494556C61.2233 8.53452 62.8069 16.4958 65.8837 23.9237C68.9604 31.3517 73.4701 38.1009 79.1552 43.786C84.8403 49.4711 91.5896 53.9808 99.0175 57.0576C106.445 60.1344 114.407 61.718 122.447 61.718V122.941Z" fill="url(#paint1_radial_361_6)"/>
<path d="M1126.99 175.754C1122.43 175.754 1120.15 175.754 1118.73 174.338C1117.32 172.921 1117.32 170.642 1117.32 166.082V9.67222C1117.32 5.11271 1117.32 2.83295 1118.73 1.41649C1120.15 3.05176e-05 1122.43 3.05176e-05 1126.99 3.05176e-05H1141.43C1145.99 3.05176e-05 1148.27 3.05176e-05 1149.69 1.41649C1151.11 2.83295 1151.11 5.11271 1151.11 9.67222V34.9201C1151.11 46.9396 1151.11 52.9494 1152.79 54.3968C1154.48 55.8443 1162.97 54.5399 1179.94 51.9313C1182.68 51.5091 1185.56 51.2921 1188.54 51.2921C1216.01 51.2921 1234 71.2255 1234 99.424V166.082C1234 170.642 1234 172.921 1232.58 174.338C1231.17 175.754 1228.89 175.754 1224.33 175.754H1209.88C1205.32 175.754 1203.04 175.754 1201.63 174.338C1200.21 172.921 1200.21 170.642 1200.21 166.082V106.96C1200.21 92.1313 1190.49 81.4353 1176.39 81.4353C1161.56 81.4353 1151.11 92.8605 1151.11 108.661V166.082C1151.11 170.642 1151.11 172.921 1149.69 174.338C1148.27 175.754 1145.99 175.754 1141.43 175.754H1126.99Z" fill="#333645"/>
<path d="M1047.14 177.699C1009.22 177.699 983.935 150.23 983.935 114.496C983.935 78.7613 1009.22 51.2921 1047.14 51.2921C1076.23 51.2921 1099.92 67.2733 1105.73 91.4488C1106.71 95.5576 1103.33 99.1808 1099.11 99.1808H1078.98C1075.47 99.1808 1072.57 96.5754 1070.99 93.434C1067.02 85.5448 1058.21 80.2198 1048.11 80.2198C1029.88 80.2198 1019.18 94.5621 1019.18 114.496C1019.18 134.429 1030.12 148.528 1048.6 148.528C1058.8 148.528 1067.36 143.422 1071.42 135.514C1072.98 132.489 1075.81 130.053 1079.21 130.053H1099.62C1104.01 130.053 1107.43 133.949 1106.14 138.145C1099.05 161.226 1075.74 177.699 1047.14 177.699Z" fill="#333645"/>
<path d="M946.4 139.4C948.049 136.526 950.804 134.186 954.118 134.186H972.84C977.371 134.186 980.823 138.325 979.283 142.586C971.461 164.225 950.028 177.699 923.205 177.699C881.636 177.699 860.244 145.125 860.244 114.252C860.244 83.1369 879.205 51.2921 920.774 51.2921C964.044 51.2921 981.303 83.1369 981.303 111.092C981.303 112.645 981.276 114.088 981.23 115.421C981.102 119.171 977.944 122.031 974.193 122.031H901.166C896.757 122.031 893.295 125.98 894.748 130.142C899.09 142.578 909.042 149.987 923.205 149.987C934.332 149.987 942.374 146.413 946.4 139.4ZM920.774 76.0873C908.227 76.0873 899.759 81.1456 895.504 92.3318C893.905 96.5343 897.412 100.639 901.908 100.639H939.723C943.933 100.639 947.356 97.0012 945.98 93.0223C942.574 83.1666 933.876 76.0873 920.774 76.0873Z" fill="#333645"/>
<path d="M804.474 175.754C800.468 175.754 797.22 172.507 797.22 168.5V44.2039C797.22 40.1975 793.972 36.9497 789.966 36.9497H754.155C750.148 36.9497 746.9 33.702 746.9 29.6956V12.8452C746.9 8.83889 750.148 5.59109 754.155 5.59109H876.749C880.756 5.59109 884.003 8.83889 884.003 12.8452V29.6956C884.003 33.702 880.756 36.9497 876.749 36.9497H840.938C836.931 36.9497 833.684 40.1975 833.684 44.2039V168.5C833.684 172.507 830.436 175.754 826.429 175.754H804.474Z" fill="#333645"/>
<path d="M674.261 177.699C628.074 177.699 588.937 148.042 588.937 90.6728C588.937 33.3034 628.804 3.64642 674.261 3.64642C713.819 3.64642 743.609 24.4271 751.528 56.574C752.572 60.813 749.164 64.6621 744.799 64.6621H721.186C717.56 64.6621 714.582 61.9389 713.374 58.52C708.323 44.2223 693.079 35.0051 674.261 35.0051C646.792 35.0051 625.643 54.2092 625.643 90.6728C625.643 127.136 646.792 146.097 674.261 146.097C693.569 146.097 708.901 136.821 714.242 122.611C715.49 119.292 718.429 116.683 721.975 116.683H744.383C748.637 116.683 752.016 120.347 751.149 124.511C744.467 156.617 714.582 177.699 674.261 177.699Z" fill="#333645"/>
<path d="M495.535 177.699C445.459 177.699 408.509 140.749 408.509 90.6728C408.509 40.5961 445.459 3.64642 495.535 3.64642C545.369 3.64642 582.319 40.5961 582.319 90.6728C582.319 140.749 545.369 177.699 495.535 177.699ZM495.292 146.097C524.463 146.097 545.612 122.518 545.612 90.6728C545.612 58.8279 524.463 35.0051 495.292 35.0051C466.121 35.0051 445.216 58.8279 445.216 90.6728C445.216 122.518 466.121 146.097 495.292 146.097Z" fill="#333645"/>
<path d="M306.254 175.754C302.248 175.754 299 172.507 299 168.5V12.8452C299 8.83889 302.248 5.59109 306.254 5.59109H328.452C332.459 5.59109 335.707 8.83889 335.707 12.8452V136.898C335.707 140.905 338.954 144.153 342.961 144.153H405.755C409.762 144.153 413.009 147.4 413.009 151.407V168.5C413.009 172.507 409.762 175.754 405.755 175.754H306.254Z" fill="#333645"/>
<defs>
<radialGradient id="paint0_radial_361_6" cx="0" cy="0" r="1" gradientUnits="userSpaceOnUse" gradientTransform="translate(200 45.5001) rotate(79.9547) scale(88.8623 92.1633)">
<stop stop-color="#D170AF"/>
<stop offset="1" stop-color="#333645"/>
</radialGradient>
<radialGradient id="paint1_radial_361_6" cx="0" cy="0" r="1" gradientUnits="userSpaceOnUse" gradientTransform="translate(147.651 51.0821) rotate(176.23) scale(161.765 161.765)">
<stop offset="0.0699609" stop-color="#FF80D3"/>
<stop offset="0.299961" stop-color="#B984FF"/>
<stop offset="0.655486" stop-color="#3F7FF4"/>
<stop offset="1" stop-color="#1A5BD4"/>
</radialGradient>
</defs>
</svg>
