<svg width="1234" height="195" viewBox="0 0 1234 195" fill="none" xmlns="http://www.w3.org/2000/svg">
<rect x="137.641" y="1" width="64.3515" height="64.3515" fill="#FF80D3"/>
<path d="M121.553 194.948C121.553 162.474 134.454 131.329 157.417 108.366C180.38 85.4024 211.525 72.5018 244 72.5018V133.725C227.763 133.725 212.19 140.175 200.709 151.657C189.227 163.139 182.777 178.711 182.777 194.948L121.553 194.948Z" fill="url(#paint0_radial_361_19)"/>
<path d="M122.447 123.916C106.367 123.916 90.4443 120.748 75.5883 114.595C60.7324 108.441 47.234 99.4219 35.8638 88.0517C24.4935 76.6815 15.4742 63.183 9.32067 48.3271C3.16715 33.4712 -1.2907e-05 17.5487 0 1.46875L61.2233 1.4688C61.2233 9.50877 62.8069 17.47 65.8837 24.898C68.9604 32.3259 73.4701 39.0752 79.1552 44.7603C84.8403 50.4454 91.5896 54.9551 99.0175 58.0318C106.445 61.1086 114.407 62.6922 122.447 62.6922V123.916Z" fill="url(#paint1_radial_361_19)"/>
<path d="M1126.99 176.729C1122.43 176.729 1120.15 176.729 1118.73 175.312C1117.32 173.896 1117.32 171.616 1117.32 167.056V10.6464C1117.32 6.08692 1117.32 3.80716 1118.73 2.3907C1120.15 0.974243 1122.43 0.974243 1126.99 0.974243H1141.43C1145.99 0.974243 1148.27 0.974243 1149.69 2.3907C1151.11 3.80716 1151.11 6.08692 1151.11 10.6464V35.8943C1151.11 47.9138 1151.11 53.9236 1152.79 55.3711C1154.48 56.8185 1162.97 55.5142 1179.94 52.9055C1182.68 52.4833 1185.56 52.2663 1188.54 52.2663C1216.01 52.2663 1234 72.1997 1234 100.398V167.056C1234 171.616 1234 173.896 1232.58 175.312C1231.17 176.729 1228.89 176.729 1224.33 176.729H1209.88C1205.32 176.729 1203.04 176.729 1201.63 175.312C1200.21 173.896 1200.21 171.616 1200.21 167.056V107.934C1200.21 93.1055 1190.49 82.4095 1176.39 82.4095C1161.56 82.4095 1151.11 93.8347 1151.11 109.636V167.056C1151.11 171.616 1151.11 173.896 1149.69 175.312C1148.27 176.729 1145.99 176.729 1141.43 176.729H1126.99Z" fill="#E8EFFF"/>
<path d="M1047.14 178.673C1009.22 178.673 983.935 151.204 983.935 115.47C983.935 79.7355 1009.22 52.2663 1047.14 52.2663C1076.23 52.2663 1099.92 68.2475 1105.73 92.4231C1106.71 96.5319 1103.33 100.155 1099.11 100.155H1078.98C1075.47 100.155 1072.57 97.5496 1070.99 94.4083C1067.02 86.5191 1058.21 81.194 1048.11 81.194C1029.88 81.194 1019.18 95.5364 1019.18 115.47C1019.18 135.403 1030.12 149.502 1048.6 149.502C1058.8 149.502 1067.36 144.396 1071.42 136.488C1072.98 133.464 1075.81 131.028 1079.21 131.028H1099.62C1104.01 131.028 1107.43 134.924 1106.14 139.119C1099.05 162.201 1075.74 178.673 1047.14 178.673Z" fill="#E8EFFF"/>
<path d="M946.4 140.374C948.049 137.5 950.804 135.16 954.118 135.16H972.84C977.371 135.16 980.823 139.3 979.283 143.561C971.461 165.199 950.028 178.673 923.205 178.673C881.636 178.673 860.244 146.099 860.244 115.227C860.244 84.1111 879.205 52.2663 920.774 52.2663C964.044 52.2663 981.303 84.1111 981.303 112.067C981.303 113.619 981.276 115.062 981.23 116.395C981.102 120.145 977.944 123.006 974.193 123.006H901.166C896.757 123.006 893.295 126.954 894.748 131.117C899.09 143.552 909.042 150.961 923.205 150.961C934.332 150.961 942.374 147.388 946.4 140.374ZM920.774 77.0615C908.227 77.0615 899.759 82.1199 895.504 93.306C893.905 97.5085 897.412 101.614 901.908 101.614H939.723C943.933 101.614 947.356 97.9755 945.98 93.9965C942.574 84.1408 933.876 77.0615 920.774 77.0615Z" fill="#E8EFFF"/>
<path d="M804.474 176.729C800.468 176.729 797.22 173.481 797.22 169.474V45.1781C797.22 41.1718 793.972 37.924 789.966 37.924H754.155C750.148 37.924 746.9 34.6762 746.9 30.6698V13.8195C746.9 9.8131 750.148 6.56531 754.155 6.56531H876.749C880.756 6.56531 884.003 9.8131 884.003 13.8195V30.6698C884.003 34.6762 880.756 37.924 876.749 37.924H840.938C836.931 37.924 833.684 41.1717 833.684 45.1781V169.474C833.684 173.481 830.436 176.729 826.429 176.729H804.474Z" fill="#E8EFFF"/>
<path d="M674.261 178.673C628.074 178.673 588.937 149.016 588.937 91.647C588.937 34.2777 628.804 4.62067 674.261 4.62067C713.819 4.62067 743.609 25.4014 751.528 57.5482C752.572 61.7872 749.164 65.6363 744.799 65.6363H721.186C717.56 65.6363 714.582 62.9131 713.374 59.4943C708.323 45.1966 693.079 35.9793 674.261 35.9793C646.792 35.9793 625.643 55.1835 625.643 91.647C625.643 128.111 646.792 147.072 674.261 147.072C693.569 147.072 708.901 137.795 714.242 123.586C715.49 120.266 718.429 117.658 721.975 117.658H744.383C748.637 117.658 752.016 121.321 751.149 125.485C744.467 157.591 714.582 178.673 674.261 178.673Z" fill="#E8EFFF"/>
<path d="M495.535 178.673C445.459 178.673 408.509 141.724 408.509 91.647C408.509 41.5704 445.459 4.62067 495.535 4.62067C545.369 4.62067 582.319 41.5704 582.319 91.647C582.319 141.724 545.369 178.673 495.535 178.673ZM495.292 147.072C524.463 147.072 545.612 123.492 545.612 91.647C545.612 59.8022 524.463 35.9793 495.292 35.9793C466.121 35.9793 445.216 59.8022 445.216 91.647C445.216 123.492 466.121 147.072 495.292 147.072Z" fill="#E8EFFF"/>
<path d="M306.254 176.729C302.248 176.729 299 173.481 299 169.474V13.8195C299 9.81311 302.248 6.56531 306.254 6.56531H328.452C332.459 6.56531 335.707 9.8131 335.707 13.8195V137.873C335.707 141.879 338.954 145.127 342.961 145.127H405.755C409.762 145.127 413.009 148.375 413.009 152.381V169.474C413.009 173.481 409.762 176.729 405.755 176.729H306.254Z" fill="#E8EFFF"/>
<defs>
<radialGradient id="paint0_radial_361_19" cx="0" cy="0" r="1" gradientUnits="userSpaceOnUse" gradientTransform="translate(200 46.4743) rotate(79.9547) scale(88.8623 92.1633)">
<stop stop-color="#D170AF"/>
<stop offset="1" stop-color="#E8EFFF"/>
</radialGradient>
<radialGradient id="paint1_radial_361_19" cx="0" cy="0" r="1" gradientUnits="userSpaceOnUse" gradientTransform="translate(147.651 52.0563) rotate(176.23) scale(161.765 161.765)">
<stop offset="0.0699609" stop-color="#FF80D3"/>
<stop offset="0.299961" stop-color="#B984FF"/>
<stop offset="0.655486" stop-color="#3F7FF4"/>
<stop offset="1" stop-color="#1A5BD4"/>
</radialGradient>
</defs>
</svg>
