<svg width="80" height="80" viewBox="0 0 80 80" fill="none" xmlns="http://www.w3.org/2000/svg">
<rect x="14" y="19" width="51" height="32" rx="4" fill="#101014"/>
<path d="M67.7016 51.9636V49.4461V34.335V19.2239C67.7016 17.8409 66.5695 16.7064 65.1841 16.7064H14.8159C13.4305 16.7064 12.2952 17.8353 12.2952 19.2239V34.335V49.4461V51.9636L6 59.5191C6 61.6008 7.69052 63.2937 9.77778 63.2937H70.2222C72.3063 63.2937 74 61.6 74 59.5191L67.7016 51.9636ZM45.0405 62.039H34.9651C34.6169 62.039 34.3349 61.7593 34.3349 61.4088C34.3349 61.0583 34.6169 60.7786 34.9651 60.7786H45.0413C45.3862 60.7786 45.6714 61.0583 45.6714 61.4088C45.6619 61.7601 45.3854 62.039 45.0405 62.039ZM29.6187 59.5215L31.5402 57.2152H48.4558L50.3805 59.5215H29.6187ZM64.1572 47.5094C64.1572 48.7243 63.1678 49.7074 61.9616 49.7074H18.0376C16.8314 49.7074 15.842 48.7156 15.842 47.5094V21.1653C15.842 19.9504 16.8314 18.9674 18.0376 18.9674H61.9624C63.1686 18.9674 64.158 19.9568 64.158 21.1653L64.1572 47.5094Z" fill="url(#paint0_linear_330_5463)"/>
<defs>
<linearGradient id="paint0_linear_330_5463" x1="40" y1="63.2937" x2="40" y2="16.7064" gradientUnits="userSpaceOnUse">
<stop offset="0.1" stop-color="#22222E"/>
<stop offset="1" stop-color="#404051"/>
</linearGradient>
</defs>
</svg>
