<svg width="48" height="26" viewBox="0 0 48 26" fill="none" xmlns="http://www.w3.org/2000/svg">
<g clip-path="url(#clip0_201_3700)">
<path d="M20.1726 18.0232C20.1846 18.0232 20.1726 23.5201 20.1726 23.5441C20.1846 24.9034 18.4913 25.1896 17.7163 25.2134H12.8036V24.1641L12.9463 24.1645C13.7529 24.1663 17.7057 24.1747 17.7163 24.1641C18.7179 24.0687 18.5987 23.5679 18.5987 23.4009V22.9954H15.2958C13.7575 22.9717 12.7796 22.3038 12.7678 21.5288C12.7678 21.4574 12.8036 18.0708 12.7678 18.035H14.3179V21.4216C14.3061 21.6124 14.3775 22.0416 15.2362 22.0534C15.6654 22.0654 18.5867 22.0534 18.6105 22.0534V18.0232H20.1726ZM34.6248 15.8766C34.7678 15.8766 34.899 15.8766 35.054 15.9007C36.3537 16.0795 37.0216 16.6519 37.0216 17.594V21.2904C37.0216 22.0534 36.7353 22.4588 36.0912 22.7212L37.6296 24.1045H35.817L34.577 22.9954L33.3249 23.0671H31.6677C31.3814 23.0671 31.0832 23.0313 30.7494 22.9358C29.7598 22.6737 29.2827 22.1488 29.2827 21.2904V17.594C29.2827 16.6519 29.9385 16.0795 31.2502 15.9007C31.3814 15.8766 31.5365 15.8766 31.6677 15.8766H34.6248ZM10.7407 15.8649C11.2024 16.0113 11.4406 16.2747 11.4657 16.8058L11.4679 16.9023V23.0433H9.91783V16.8903L7.50908 22.2562C7.22312 22.9 6.84148 23.1267 6.07821 23.1267C5.34988 23.1267 4.96904 22.9202 4.68698 22.3414L4.64733 22.2562L2.23885 16.8903V23.0433H0.676758V16.9023C0.676758 16.3061 0.915147 16.0199 1.41598 15.8649C2.55709 15.5076 3.35281 15.7963 3.71698 16.5378L3.75311 16.6161L6.04266 21.8986L8.40357 16.6161C8.76116 15.817 9.56025 15.4953 10.7407 15.8649ZM28.3527 15.8528V16.8903H23.905C23.8572 16.8903 23.7976 16.9023 23.75 16.9023C23.2014 16.9499 23.0346 17.0453 22.963 17.3674C22.955 17.3991 22.9523 17.4256 22.9514 17.4539L22.951 17.4986V18.202C22.951 18.2496 22.951 18.2974 22.963 18.345C23.0306 18.7392 23.3002 18.9313 23.8624 18.9515L23.9646 18.9532H25.8485C26.3135 18.9532 26.7906 19.0249 27.184 19.1799C27.8731 19.4396 28.2519 19.8385 28.2899 20.255L28.2931 20.3245V21.4692C28.2931 22.0178 27.959 22.435 27.2914 22.745C26.9265 22.9168 26.4746 23.021 26.0054 23.0401L25.8485 23.0433H21.3771V22.0058H25.6697C25.7293 22.0058 25.7772 21.9938 25.8368 21.9938C26.1347 21.97 26.3614 21.8986 26.4926 21.7792C26.6282 21.6749 26.6998 21.5524 26.7156 21.4514L26.719 21.4096V20.5033C26.719 20.3961 26.6831 20.3125 26.5998 20.2171C26.4448 20.0383 26.2419 19.9549 25.7413 19.9071C25.6935 19.8953 25.6339 19.8953 25.5743 19.8953H23.9646C23.8096 19.8953 23.6664 19.8833 23.5114 19.8833C22.2321 19.7451 21.4427 19.1833 21.3915 18.5104L21.3889 18.4404V17.5341C21.3889 16.7353 21.7943 16.2823 22.7243 15.9841C23.0013 15.9066 23.2985 15.8599 23.8456 15.8536L23.9764 15.8528H28.3527ZM39.5495 15.8528V21.2308C39.5495 21.7572 39.8682 21.9872 40.7059 22.0047L40.8133 22.0058H44.8914V23.0433H40.8371C40.6941 23.0433 40.5391 23.0313 40.3962 23.0192C38.835 22.9036 38.0476 22.3395 38.0013 21.327L37.9992 21.2308V15.8528H39.5495ZM46.1434 22.0058V22.1846H45.8334V23.0433H45.6068V22.1846H45.2968V22.0058H46.1434ZM46.6918 22.0058L46.9663 22.7212L47.2405 22.0058H47.5505V23.0433H47.3477V22.2562H47.3359L47.0377 23.0433H46.8827L46.5847 22.2562V23.0433H46.3701V22.0058H46.6918ZM34.4578 16.9141H32.0969C31.4052 16.9141 30.964 17.2124 30.964 17.6774V21.195C30.964 21.2546 30.976 21.3024 30.9878 21.362C31.0832 21.7912 31.4886 22.0296 32.0969 22.0296H33.5157L32.2161 20.8612H34.0286L35.1612 21.8746C35.3641 21.7674 35.507 21.6004 35.5549 21.3858C35.5666 21.3262 35.5666 21.2783 35.5666 21.2308V17.6774C35.5666 17.6416 35.5666 17.594 35.5549 17.5462C35.4595 17.1407 35.054 16.9141 34.4578 16.9141ZM33.1223 1.56791C33.3011 1.67507 33.4919 1.90171 33.6707 1.97333C33.969 1.99711 34.267 2.00887 34.5652 2.03293C35.1257 2.16415 35.6503 2.27132 36.0912 2.52173C38.1542 3.72597 39.4779 4.95427 40.7179 6.98138C40.9683 7.41059 41.1116 7.87561 41.3142 8.34063C41.6122 9.03228 41.9462 9.74772 42.2921 10.4156C42.4588 10.7256 42.5663 11.0714 42.7809 11.3336C42.8763 11.4531 43.1147 11.4886 43.2459 11.5482C43.6513 11.751 44.1163 11.9061 44.498 12.1565C45.1776 12.5857 45.8454 13.0985 46.4534 13.6232C46.6578 13.7867 46.7922 14.029 46.9616 14.23L47.0497 14.3266V14.434L46.4772 14.6008C46.06 14.7082 45.6902 14.6844 45.285 14.7916C45.0464 14.8514 44.7363 14.9466 44.4739 14.9824C44.4739 14.9944 44.4859 14.9944 44.498 15.0062C44.653 15.4357 45.4876 15.8053 45.8572 16.0677C46.2706 16.3644 46.6651 16.7177 46.9906 17.1107L47.1093 17.2599L47.4671 17.6178C47.5242 17.7131 47.5509 17.8314 47.6021 17.9299L47.6459 17.9994V18.0232C47.4909 17.9636 47.3955 17.8204 47.2763 17.7249C47.0139 17.5341 46.7514 17.3195 46.4772 17.1528C46.036 16.8665 45.5114 16.7115 45.0346 16.4253C44.7722 16.2583 44.5217 16.0677 44.2833 15.8766C44.0567 15.7099 43.8063 15.3878 43.6513 15.1494C43.5797 15.0182 43.5559 14.8632 43.4605 14.7678C43.4963 14.5412 43.7705 14.5412 43.9493 14.4698C44.5813 14.1956 45.3088 14.112 46.2626 14.1357C46.2388 13.8853 45.6426 13.5873 45.4518 13.4561C45.0584 13.1819 44.6647 12.8839 44.2475 12.6453C44.0329 12.5141 43.6631 12.4069 43.4367 12.3115C43.1147 12.1803 42.3992 12.049 42.2084 11.7986C41.8626 11.3336 41.6122 10.7614 41.3738 10.189C41.1234 9.62852 40.8013 9.03228 40.5512 8.44807C40.4317 8.16184 40.3721 7.91142 40.2291 7.63722C39.3467 5.95593 38.0708 4.54885 36.4969 3.55921C35.9841 3.22514 35.4116 2.92715 34.7798 2.73634C34.4731 2.64425 34.114 2.67508 33.7773 2.63308L33.6111 2.60511H33.3727C33.1581 2.54552 32.9791 2.31915 32.8003 2.19969C32.4307 1.94928 32.0611 1.78251 31.6316 1.59169C31.4648 1.53209 31.0236 1.36506 30.8686 1.48426C30.7732 1.52007 30.7374 1.55588 30.7016 1.65129C30.6182 1.79427 30.7016 2.00887 30.7612 2.14009C30.9402 2.52173 31.1906 2.74836 31.417 3.07013C31.6198 3.3446 31.8582 3.66638 32.0132 3.98842C32.3235 4.65601 32.4545 5.3955 32.7407 6.0631C32.8599 6.31352 33.0149 6.59974 33.1819 6.81435C33.3132 6.99341 33.5395 7.13639 33.6111 7.36302C33.7661 7.60141 33.3965 8.38847 33.3132 8.63888C33.0029 9.61649 33.0745 10.976 33.4203 11.8227C33.5636 12.1565 33.6948 12.5499 34.0762 12.6453C34.0999 12.6215 34.0882 12.6335 34.1358 12.6095C34.2074 11.9656 34.2432 11.3336 34.4578 10.821C34.6008 10.499 34.8512 10.2723 35.03 9.99813C35.1612 10.0818 35.1612 10.2964 35.2211 10.4394C35.3758 10.809 35.5428 11.2144 35.7337 11.584C36.1391 12.3473 36.5803 13.0865 37.0691 13.7544C37.2479 13.9928 37.4866 14.2552 37.7012 14.4698C37.7679 14.5365 37.85 14.5803 37.9168 14.6502L37.9636 14.7082H37.9992V14.732C37.6296 14.6128 37.4029 14.2432 37.1287 14.0286C36.5803 13.6232 35.9365 13.0031 35.5787 12.4186C35.4673 12.2041 35.3561 11.9895 35.2484 11.7713L35.0898 11.441V11.4172C35.0182 11.5127 35.042 11.6081 35.0062 11.739C34.8512 12.3473 34.9704 13.0149 34.434 13.2415C33.814 13.4919 33.3727 12.8361 33.1819 12.5381C32.5619 11.5364 32.4069 9.87894 32.8241 8.53145C32.9195 8.23346 32.9315 7.87561 33.0986 7.63722C33.0745 7.42262 32.8957 7.36302 32.8003 7.2318C32.6333 7.00517 32.4903 6.74272 32.3591 6.49258C32.1086 6.0035 31.9419 5.41929 31.739 4.88264C31.6557 4.66804 31.6436 4.46546 31.5482 4.26262C31.4052 3.9526 31.1548 3.64259 30.952 3.36839C30.666 2.97473 29.8669 2.21172 30.189 1.43669C30.6898 0.196632 32.4427 1.13843 33.1223 1.56791ZM34.0999 3.77381C34.2074 3.86922 34.3504 3.92882 34.434 4.04801C34.4936 4.1314 34.5054 4.21505 34.5652 4.2864C34.5652 4.55483 34.5072 4.73624 34.3738 4.84796L34.3266 4.88264L34.2908 4.91846C34.2074 4.72764 34.112 4.53682 34.0286 4.346C33.9332 4.21259 33.8073 4.10192 33.7118 3.9653L33.647 3.85719H33.6111V3.83341C33.7661 3.7976 33.9094 3.77381 34.0999 3.77381Z" fill="#9BAAB0"/>
</g>
<defs>
<clipPath id="clip0_201_3700">
<rect width="47.2461" height="24.5873" fill="white" transform="translate(0.676758 0.819824)"/>
</clipPath>
</defs>
</svg>
