<svg width="24" height="24" viewBox="0 0 24 24" fill="none" xmlns="http://www.w3.org/2000/svg">
<path opacity="0.2" d="M20.2504 19.4999H3.75042C3.48724 19.4997 3.22877 19.4302 3.00095 19.2984C2.77314 19.1666 2.584 18.9773 2.45253 18.7493C2.32106 18.5213 2.25189 18.2627 2.25195 17.9996C2.25202 17.7364 2.32133 17.4779 2.45292 17.2499L10.7029 2.99994C10.8346 2.77219 11.024 2.5831 11.2519 2.45164C11.4798 2.32018 11.7383 2.25098 12.0014 2.25098C12.2645 2.25098 12.5229 2.32018 12.7508 2.45164C12.9787 2.5831 13.1681 2.77219 13.2998 2.99994L21.5498 17.2499C21.6815 17.478 21.7508 17.7367 21.7508 18C21.7507 18.2634 21.6814 18.522 21.5497 18.7501C21.418 18.9781 21.2286 19.1675 21.0005 19.2991C20.7725 19.4307 20.5137 19.5 20.2504 19.4999Z" fill="#4766C1"/>
<path d="M8.99961 19.5001C8.99961 19.699 8.92059 19.8898 8.77994 20.0304C8.63928 20.1711 8.44852 20.2501 8.24961 20.2501H3.74961C3.35477 20.2498 2.96694 20.1457 2.62509 19.9481C2.28323 19.7505 1.99939 19.4665 1.80208 19.1245C1.60476 18.7825 1.50092 18.3946 1.50098 17.9997C1.50104 17.6049 1.605 17.217 1.80242 16.8751L5.01711 11.3204L3.69992 11.6719C3.60451 11.6974 3.50501 11.7039 3.4071 11.6909C3.3092 11.6779 3.21481 11.6458 3.12932 11.5964C2.95667 11.4965 2.83076 11.3321 2.77929 11.1394C2.72783 10.9468 2.75501 10.7415 2.85488 10.5689C2.95474 10.3962 3.1191 10.2703 3.31179 10.2188L6.38398 9.39664C6.47915 9.37112 6.57841 9.36461 6.6761 9.37747C6.77378 9.39033 6.86798 9.42231 6.9533 9.47159C7.03862 9.52087 7.1134 9.58647 7.17335 9.66466C7.23331 9.74284 7.27727 9.83208 7.30273 9.92726L8.12679 12.9994C8.15282 13.0951 8.15965 13.1949 8.14688 13.2931C8.13411 13.3914 8.102 13.4861 8.0524 13.5719C8.0028 13.6577 7.9367 13.7328 7.85791 13.7929C7.77912 13.8529 7.6892 13.8968 7.59336 13.9219C7.52968 13.9385 7.46416 13.947 7.39836 13.9473C7.23337 13.9471 7.07303 13.8925 6.94219 13.792C6.81135 13.6915 6.7173 13.5507 6.67461 13.3913L6.31836 12.0648L3.10367 17.6251C3.03799 17.7388 3.00334 17.8678 3.00318 17.9992C3.00303 18.1305 3.03737 18.2596 3.10277 18.3735C3.16817 18.4874 3.26234 18.5822 3.37586 18.6483C3.48938 18.7143 3.61826 18.7494 3.74961 18.7501H8.24961C8.44852 18.7501 8.63928 18.8291 8.77994 18.9697C8.92059 19.1104 8.99961 19.3012 8.99961 19.5001ZM22.193 16.8751L20.0237 13.1251C19.9199 12.9618 19.7571 12.845 19.5692 12.799C19.3813 12.7529 19.1829 12.7813 19.0154 12.8781C18.8479 12.9749 18.7243 13.1327 18.6704 13.3185C18.6165 13.5042 18.6365 13.7037 18.7262 13.8751L20.8955 17.6251C20.9612 17.7388 20.9959 17.8678 20.996 17.9992C20.9962 18.1305 20.9618 18.2596 20.8964 18.3735C20.831 18.4874 20.7369 18.5822 20.6234 18.6483C20.5098 18.7143 20.381 18.7494 20.2496 18.7501H13.8099L14.7793 17.7807C14.92 17.6401 14.9991 17.4493 14.9992 17.2504C14.9993 17.0515 14.9204 16.8606 14.7798 16.7199C14.6392 16.5792 14.4484 16.5001 14.2495 16.5C14.0505 16.4999 13.8597 16.5788 13.719 16.7194L11.469 18.9694C11.3992 19.0391 11.3439 19.1218 11.3062 19.2129C11.2684 19.3039 11.249 19.4015 11.249 19.5001C11.249 19.5986 11.2684 19.6962 11.3062 19.7873C11.3439 19.8783 11.3992 19.961 11.469 20.0307L13.719 22.2807C13.7887 22.3503 13.8714 22.4055 13.9624 22.4432C14.0534 22.4808 14.151 22.5002 14.2495 22.5002C14.348 22.5001 14.4455 22.4807 14.5365 22.4429C14.6275 22.4052 14.7101 22.3499 14.7798 22.2802C14.8494 22.2105 14.9046 22.1278 14.9423 22.0368C14.9799 21.9458 14.9993 21.8482 14.9992 21.7497C14.9992 21.6512 14.9797 21.5537 14.942 21.4627C14.9043 21.3717 14.849 21.2891 14.7793 21.2194L13.8099 20.2501H20.2496C20.6444 20.2498 21.0323 20.1457 21.3741 19.9481C21.716 19.7505 21.9998 19.4665 22.1971 19.1245C22.3945 18.7825 22.4983 18.3946 22.4982 17.9997C22.4982 17.6049 22.3942 17.217 22.1968 16.8751H22.193ZM11.9996 3.00007C12.1314 2.99875 12.2612 3.03285 12.3753 3.09882C12.4894 3.16479 12.5837 3.26019 12.6484 3.37507L15.863 8.92976L14.543 8.57539C14.3533 8.53084 14.1536 8.56194 13.9864 8.66208C13.8191 8.76222 13.6974 8.92354 13.6471 9.11186C13.5968 9.30018 13.6217 9.5007 13.7167 9.67093C13.8117 9.84116 13.9692 9.96773 14.1559 10.0238L17.229 10.8479C17.2923 10.8645 17.3575 10.873 17.423 10.8732C17.588 10.873 17.7484 10.8185 17.8792 10.718C18.0101 10.6175 18.1041 10.4766 18.1468 10.3173L18.9709 7.2432C18.9991 7.14722 19.0079 7.04655 18.9967 6.94712C18.9855 6.8477 18.9545 6.75151 18.9056 6.66425C18.8566 6.57698 18.7907 6.50038 18.7117 6.43898C18.6327 6.37758 18.5422 6.3326 18.4456 6.3067C18.3489 6.2808 18.2481 6.27451 18.149 6.28818C18.0498 6.30186 17.9545 6.33523 17.8684 6.38633C17.7824 6.43743 17.7075 6.50523 17.648 6.58573C17.5886 6.66623 17.5459 6.75781 17.5224 6.85507L17.1662 8.18351L13.9468 2.62507C13.7491 2.28367 13.4652 2.00024 13.1234 1.8032C12.7817 1.60616 12.3941 1.50244 11.9996 1.50244C11.6051 1.50244 11.2176 1.60616 10.8758 1.8032C10.534 2.00024 10.2501 2.28367 10.0524 2.62507L7.88117 6.37507C7.78788 6.54687 7.76536 6.7483 7.8184 6.93646C7.87144 7.12462 7.99585 7.28464 8.16514 7.38242C8.33442 7.4802 8.53519 7.50801 8.72468 7.45995C8.91417 7.41188 9.0774 7.29172 9.17961 7.12507L11.3509 3.37507C11.4155 3.26019 11.5098 3.16479 11.6239 3.09882C11.7381 3.03285 11.8678 2.99875 11.9996 3.00007Z" fill="#4766C1"/>
</svg>
