<svg width="7448" height="940" viewBox="0 0 7448 940" fill="none" xmlns="http://www.w3.org/2000/svg">
<path d="M726.287 921.285C968.438 494.181 1355.19 318.639 1723.71 315.596C2092.22 312.553 2453.16 459.439 2813.62 577.269C3174.09 695.1 3548.78 784.461 3909.28 666.761C4298.7 539.609 4644.82 178.929 5036.86 72.44C5842.72 -146.453 6634.29 743.311 7447.26 599.456M7423.1 573.453C6836.8 698.933 6254.16 286.109 5670.84 122.712C5453.33 61.7814 5235.78 35.832 5017.29 87.94C4685.33 166.12 4384.92 417.356 4063.42 568.651C4004.6 596.32 3945.1 620.655 3884.65 639.885C3524.25 754.779 3150.73 678.557 2790.89 574.724C2430.6 471.156 2069.91 339.393 1701.57 342.643C1621.77 343.349 1541.14 351.339 1461.25 367.287C1170.6 424.856 890.506 585.917 694.722 908.528M7398.94 547.45C6818.38 693.651 6233.8 311.404 5650.25 148.806C5432.86 88.2203 5215.84 59.3043 4997.72 103.44C4665.41 170.68 4363 400.556 4039.73 544.464C3980.53 570.782 3920.73 594.208 3860.01 613.01C3499.7 725.098 3127.37 662.015 2768.16 572.18C2408.04 482.874 2047.6 366.235 1679.43 369.691C1599.52 370.444 1518.79 377.703 1438.73 392.012C1146.5 443.406 864.93 585.308 663.156 895.77M7374.78 521.445C6799.96 688.367 6213.42 336.699 5629.68 174.899C5412.4 114.656 5195.8 82.4466 4978.14 118.941C4645.34 174.743 4341.08 383.757 4016.02 520.277C3956.48 545.241 3896.36 567.761 3835.38 586.133C3475.16 695.416 3104.01 645.472 2745.41 569.636C2385.47 494.591 2025.29 393.076 1657.29 396.737C1577.26 397.539 1496.43 404.067 1416.21 416.739C1122.39 461.955 839.354 584.7 631.592 883.012M7350.64 495.443C6781.54 683.084 6193.06 361.995 5609.1 200.992C5391.93 141.093 5175.73 105.563 4958.57 134.441C4625.25 178.768 4319.16 366.96 3992.33 496.089C3932.41 519.701 3871.98 541.315 3810.77 559.256C3450.61 665.733 3080.65 628.929 2722.68 567.089C2362.91 506.308 2002.98 419.917 1635.15 423.784C1555.01 424.635 1474.1 430.634 1393.69 441.466C1098.39 481.247 813.778 584.092 600.024 870.252M7326.48 469.439C6763.12 677.801 6172.69 387.29 5588.53 227.086C5371.45 167.531 5155.64 128.651 4939 149.942C4605.12 182.754 4297.25 350.162 3968.64 471.903C3908.34 494.163 3847.61 514.868 3786.14 532.381C3426.08 636.051 3057.4 611.593 2699.94 564.545C2340.45 517.229 1980.67 446.758 1613.01 450.832C1532.75 451.73 1451.74 457.034 1371.17 466.192C1074.28 499.935 788.202 583.484 568.459 857.495M7302.32 443.436C6744.7 672.517 6152.33 412.585 5567.96 253.179C5350.98 193.968 5135.54 151.71 4919.42 165.443C4584.96 186.695 4275.33 333.362 3944.93 447.716C3884.29 468.623 3823.24 488.421 3761.52 505.505C3401.53 606.369 3034.02 594.937 2677.21 562.001C2317.87 528.831 1958.36 473.599 1590.87 477.879C1510.49 478.824 1429.39 483.429 1348.65 490.917C1050.17 518.604 762.626 582.876 536.894 844.737M7278.16 417.432C6726.28 667.233 6131.96 437.88 5547.37 279.273C5330.52 220.405 5115.42 174.736 4899.85 180.943C4564.78 190.589 4253.41 316.563 3921.24 423.528C3860.22 443.084 3798.86 461.975 3736.89 478.629C3376.98 576.688 3010.64 578.3 2654.48 559.456C2295.28 540.452 1936.05 500.44 1568.73 504.925C1488.24 505.919 1407.02 509.819 1326.14 515.643C1026.05 537.253 737.05 582.268 505.327 831.979M7254.01 391.428C6707.86 661.951 6111.6 463.176 5526.8 305.365C5310.05 246.841 5095.29 197.729 4880.28 196.443C4544.58 194.435 4231.49 299.765 3897.53 399.341C3836.16 417.544 3774.48 435.528 3712.26 451.752C3352.44 547.005 2987.24 561.683 2631.74 556.912C2272.68 552.092 1913.74 527.281 1546.59 531.973C1465.98 533.015 1384.66 536.203 1303.62 540.369C1001.92 555.883 711.474 581.66 473.762 819.22M7229.85 365.426C6689.44 656.667 6091.22 488.472 5506.22 331.46C5289.58 273.279 5075.16 220.69 4860.7 211.944C4524.38 198.23 4209.58 282.967 3873.84 375.155C3812.1 392.004 3750.1 409.082 3687.64 424.878C3327.89 517.323 2963.84 545.086 2609.01 554.366C2250.07 563.754 1891.44 554.123 1524.45 559.022C1443.73 560.11 1362.3 562.583 1281.1 565.096C977.795 574.491 685.898 581.052 442.196 806.463M7205.69 339.422C6671.02 651.383 6070.85 513.767 5485.65 357.554C5269.1 299.716 5055.02 243.614 4841.13 227.444C4504.17 201.971 4187.66 266.167 3850.14 350.968C3788.04 366.466 3725.7 382.508 3663.01 398C3303.17 486.918 2940.44 528.512 2586.26 551.822C2227.46 575.438 1869.13 580.964 1502.32 586.068C1421.47 587.204 1339.94 588.955 1258.58 589.823C953.663 593.079 660.322 580.444 410.631 793.704M7181.53 313.418C6652.6 646.1 6050.49 539.062 5465.08 383.647C5248.64 326.154 5034.89 266.506 4821.56 242.944C4483.97 205.659 4165.74 249.368 3826.44 326.78C3763.98 340.926 3701.33 356.059 3638.38 371.124C3278.64 457.224 2917.04 511.959 2563.53 549.278C2204.85 587.143 1846.82 607.804 1480.18 613.116C1399.21 614.3 1317.58 615.322 1236.06 614.55C929.531 611.644 634.744 579.838 379.064 780.947M7157.37 287.415C6634.18 640.816 6030.12 564.357 5444.49 409.74C5228.17 352.591 5014.76 289.364 4801.98 258.444C4463.76 209.295 4143.82 232.57 3802.74 302.594C3739.92 315.387 3676.96 329.612 3613.76 344.25C3254.09 427.543 2893.62 495.427 2540.8 546.732C2182.24 598.87 1824.51 634.644 1458.04 640.163C1376.96 641.395 1295.21 641.684 1213.54 639.275C905.4 630.191 609.168 579.23 347.499 768.188M7133.22 261.412C6615.76 635.532 6009.76 589.652 5423.92 435.833C5207.7 379.028 4994.62 312.191 4782.41 273.945C4443.57 212.879 4121.92 215.772 3779.04 278.407C3715.85 289.847 3652.58 303.167 3589.13 317.372C3229.56 397.872 2870.24 478.916 2518.06 544.188C2159.64 610.619 1802.2 661.485 1435.9 667.209C1354.7 668.489 1272.85 668.039 1191.02 664.001C881.27 648.715 583.592 578.621 315.934 755.429M7109.06 235.408C6597.34 630.251 5989.38 614.948 5403.34 461.927C5187.22 405.465 4974.52 334.987 4762.84 289.445C4423.4 216.415 4100 198.972 3755.34 254.219C3691.8 264.307 3628.24 276.848 3564.5 290.497C3205.18 368.913 2846.84 462.424 2495.33 541.641C2137.04 622.387 1779.89 688.327 1413.76 694.257C1332.45 695.585 1250.49 694.391 1168.51 688.728C857.142 667.22 558.018 578.013 284.367 742.672M7084.9 209.404C6578.92 624.967 5969.02 640.244 5382.77 488.021C5166.76 431.903 4954.41 357.753 4743.26 304.945C4403.24 219.903 4078.08 182.173 3731.65 230.032C3667.73 238.767 3603.86 250.4 3539.88 263.62C3180.64 339.232 2823.46 445.952 2472.59 539.097C2114.46 634.173 1757.58 715.168 1391.62 721.305C1310.19 722.681 1228.12 720.737 1145.99 713.455C833.019 685.705 532.44 577.405 252.802 729.915M7060.74 183.402C6560.49 619.683 5948.65 665.538 5362.18 514.115C5146.29 458.339 4934.32 380.495 4723.69 320.447C4383.1 223.346 4056.17 165.375 3707.94 205.844C3643.66 213.228 3579.49 223.954 3515.25 236.744C3156.09 309.55 2800.09 429.496 2449.86 536.554C2091.88 645.978 1735.27 742.01 1369.48 748.352C1287.94 749.776 1205.76 747.078 1123.47 738.182C808.899 704.172 506.864 576.798 221.236 717.155M7036.6 157.398C6542.08 614.4 5928.28 690.834 5341.61 540.208C5125.82 484.776 4914.25 403.212 4704.12 335.947C4363 226.75 4034.25 148.578 3684.25 181.658C3619.61 187.688 3555.1 197.507 3490.62 209.868C3131.54 279.868 2776.73 413.055 2427.12 534.008C2069.32 657.799 1712.96 768.851 1347.34 775.399C1265.68 776.871 1183.41 773.415 1100.95 762.907C784.786 722.619 481.289 576.19 189.67 704.398M7012.44 131.395C6523.65 609.116 5907.92 716.129 5321.04 566.301C5105.36 511.213 4894.2 425.907 4684.56 351.447C4342.93 230.115 4012.33 131.777 3660.54 157.471C3595.54 162.148 3530.73 171.06 3466 182.992C3107 250.186 2753.38 396.627 2404.39 531.464C2046.77 669.633 1690.65 795.692 1325.21 802.447C1243.42 803.967 1161.05 799.745 1078.43 787.633C760.68 741.047 455.712 575.581 158.104 691.639M6988.28 105.391C6505.24 603.832 5887.54 741.424 5300.46 592.395C5084.88 537.651 4874.16 448.584 4664.98 366.948C4322.89 233.447 3990.41 114.979 3636.85 133.283C3571.49 136.61 3506.36 144.614 3441.37 156.116C3082.46 220.504 2730.29 380.79 2381.65 528.919C2024.48 682.074 1668.34 822.532 1303.07 829.494C1221.17 831.062 1138.69 826.074 1055.91 812.36C736.58 759.459 430.136 574.972 126.539 678.88M6964.12 79.3883C6486.81 598.55 5867.18 766.719 5279.89 618.488C5064.41 564.087 4854.16 471.244 4645.41 382.448C4302.89 236.751 3968.5 98.1803 3613.16 109.096C3547.42 111.07 3481.98 118.167 3416.74 129.24C3057.92 190.822 2706.93 364.248 2358.92 526.374C2001.92 693.791 1646.03 849.374 1280.93 856.54C1198.91 858.156 1116.37 852.251 1033.4 837.086C712.594 777.292 404.561 574.364 94.9727 666.123M6939.96 53.384C6468.4 593.265 5846.81 792.015 5259.3 644.583C5043.94 590.525 4834.16 493.889 4625.84 397.948C4282.92 240.028 3946.58 81.3827 3589.45 84.9094C3523.36 85.5294 3457.61 91.7201 3392.12 102.364C3033.37 161.14 2683.58 347.704 2336.18 523.829C1979.36 705.508 1623.72 876.213 1258.79 883.588C1176.66 885.251 1094.01 878.615 1010.88 861.811C688.488 795.841 378.985 573.756 63.4072 653.364M6915.81 27.38C6449.97 587.981 5826.45 817.309 5238.73 670.676C5023.48 616.963 4814.32 516.272 4606.26 413.449C4263.18 242.868 3924.66 64.5841 3565.76 60.7227C3499.3 59.9907 3433.24 65.2734 3367.49 75.4881C3008.82 131.457 2660.22 331.163 2313.44 521.284C1956.8 717.227 1601.42 903.055 1236.65 910.636C1154.4 912.347 1071.65 904.977 988.359 886.537C664.383 814.391 353.408 573.148 31.8418 640.607M6891.65 1.37744C6431.56 582.699 5806.08 842.605 5218.16 696.769C4646.84 555.051 4120.64 54.5801 3542.05 36.5347C2653.92 8.83473 1843.48 1122.41 965.842 911.264C640.277 832.94 327.833 572.54 0.275391 627.848" stroke="#11A9FF" stroke-width="3.30655" stroke-miterlimit="10"/>
</svg>
