<svg width="152" height="29" viewBox="0 0 152 29" fill="none" xmlns="http://www.w3.org/2000/svg">
<path d="M54.0919 1.49995C55.0079 1.33122 56.0564 1.19864 57.2375 1.10222C58.4428 1.00581 59.5395 0.957597 60.5278 0.957597C61.6366 0.957597 62.6852 1.07812 63.6734 1.31916C64.6858 1.56021 65.5657 1.95794 66.3129 2.51234C67.0842 3.06675 67.6989 3.78988 68.1569 4.68175C68.6149 5.57362 68.8439 6.65832 68.8439 7.93587C68.8439 9.91244 68.3015 11.5154 67.2168 12.7447C66.1321 13.9741 64.7582 14.7936 63.0949 15.2034L64.8305 16.5412L71.1218 26.5566H67.6145L60.6363 15.6373L57.0929 15.0949V26.5566H54.0919V1.49995ZM60.6001 3.56089C60.2868 3.56089 59.9613 3.56089 59.6239 3.56089C59.2864 3.56089 58.961 3.57294 58.6476 3.59704C58.3343 3.62115 58.033 3.64526 57.7437 3.66936C57.4786 3.69346 57.2616 3.72962 57.0929 3.77783V13.1063H59.9131C61.5764 13.1063 62.9503 12.6965 64.035 11.877C65.1197 11.0574 65.6621 9.77987 65.6621 8.04434C65.6621 6.74269 65.2161 5.67004 64.3243 4.82638C63.4324 3.98272 62.191 3.56089 60.6001 3.56089ZM74.8722 1.49995C75.7882 1.33122 76.8367 1.19864 78.0178 1.10222C79.2231 1.00581 80.3198 0.957597 81.3081 0.957597C82.4169 0.957597 83.4655 1.07812 84.4537 1.31916C85.4661 1.56021 86.346 1.95794 87.0932 2.51234C87.8645 3.06675 88.4792 3.78988 88.9372 4.68175C89.3952 5.57362 89.6242 6.65832 89.6242 7.93587C89.6242 9.91244 89.0818 11.5154 87.9971 12.7447C86.9124 13.9741 85.5385 14.7936 83.8752 15.2034L85.6108 16.5412L91.9021 26.5566H88.3948L81.4166 15.6373L77.8732 15.0949V26.5566H74.8722V1.49995ZM81.3804 3.56089C81.0671 3.56089 80.7416 3.56089 80.4042 3.56089C80.0667 3.56089 79.7413 3.57294 79.4279 3.59704C79.1146 3.62115 78.8133 3.64526 78.524 3.66936C78.2589 3.69346 78.0419 3.72962 77.8732 3.77783V13.1063H80.6934C82.3566 13.1063 83.7306 12.6965 84.8153 11.877C85.9 11.0574 86.4424 9.77987 86.4424 8.04434C86.4424 6.74269 85.9964 5.67004 85.1046 4.82638C84.2127 3.98272 82.9713 3.56089 81.3804 3.56089ZM96.3395 1.24685H99.3405V26.5566H96.3395V1.24685ZM110.007 9.99681L108.055 6.34497H107.91L108.272 9.99681V26.5566H105.452V0.849126H107.042L119.155 17.7344L121.035 21.2054H121.216L120.818 17.7344V1.24685H123.638V26.9544H122.048L110.007 9.99681ZM140.482 20.1207C140.482 19.1083 140.181 18.2888 139.578 17.6621C138.976 17.0112 138.216 16.4448 137.3 15.9627C136.408 15.4565 135.432 14.9865 134.372 14.5526C133.311 14.1187 132.323 13.6004 131.407 12.9978C130.515 12.3711 129.768 11.6118 129.165 10.7199C128.562 9.80397 128.261 8.64695 128.261 7.24889C128.261 5.27231 128.948 3.70552 130.322 2.5485C131.696 1.39148 133.649 0.812969 136.179 0.812969C137.65 0.812969 138.988 0.92144 140.193 1.13838C141.398 1.35532 142.338 1.63252 143.013 1.96999L142.109 4.60944C141.555 4.34429 140.735 4.09119 139.651 3.85014C138.59 3.6091 137.385 3.48858 136.035 3.48858C134.444 3.48858 133.251 3.85014 132.455 4.57328C131.66 5.27231 131.262 6.10392 131.262 7.0681C131.262 8.00818 131.563 8.79158 132.166 9.4183C132.769 10.045 133.516 10.6115 134.408 11.1177C135.324 11.5998 136.312 12.0819 137.373 12.5639C138.433 13.046 139.41 13.6125 140.301 14.2633C141.217 14.89 141.977 15.6493 142.579 16.5412C143.182 17.4331 143.483 18.5419 143.483 19.8676C143.483 20.9523 143.29 21.9286 142.905 22.7963C142.519 23.6641 141.953 24.4113 141.205 25.0381C140.458 25.6648 139.554 26.1469 138.494 26.4843C137.433 26.8218 136.228 26.9905 134.878 26.9905C133.07 26.9905 131.576 26.8459 130.394 26.5566C129.213 26.2915 128.297 25.9902 127.646 25.6527L128.659 22.941C129.213 23.2543 130.033 23.5677 131.118 23.881C132.202 24.1703 133.42 24.3149 134.769 24.3149C135.565 24.3149 136.312 24.2426 137.011 24.098C137.71 23.9292 138.313 23.6761 138.819 23.3387C139.325 22.9771 139.723 22.5312 140.012 22.0009C140.325 21.4706 140.482 20.8439 140.482 20.1207Z" fill="white"/>
<path d="M19.4475 3.92246H11.5653V26.5566H8.56427V3.92246H0.682073V1.24685H19.4475V3.92246Z" fill="white"/>
<circle cx="33.6052" cy="15.0603" r="12.1353" stroke="#FFC444" stroke-width="2.73671"/>
<line x1="17.0508" y1="9.41963" x2="49.87" y2="9.41963" stroke="white" stroke-width="0.684179"/>
<line x1="17.0508" y1="14.7167" x2="49.87" y2="14.7167" stroke="white" stroke-width="0.684179"/>
<line x1="17.0508" y1="19.8884" x2="49.87" y2="19.8884" stroke="white" stroke-width="0.684179"/>
</svg>